<mxfile host="Electron" agent="Mozilla/5.0 (Windows NT 10.0; Win64; x64) AppleWebKit/537.36 (KHTML, like Gecko) draw.io/28.2.5 Chrome/138.0.7204.251 Electron/37.6.1 Safari/537.36" version="28.2.5" pages="3">
  <diagram name="P치gina-1" id="RtfAUnThblbY2mUoXIaE">
    <mxGraphModel dx="2491" dy="1511" grid="1" gridSize="10" guides="1" tooltips="1" connect="1" arrows="1" fold="1" page="1" pageScale="1" pageWidth="827" pageHeight="1169" math="0" shadow="0">
      <root>
        <mxCell id="0" />
        <mxCell id="1" parent="0" />
        <mxCell id="6AJnXQhVAYeLPMhWUeFD-4" value="Passageiro" style="shape=umlActor;verticalLabelPosition=bottom;verticalAlign=top;html=1;outlineConnect=0;" vertex="1" parent="1">
          <mxGeometry x="45" y="760" width="50" height="100" as="geometry" />
        </mxCell>
        <mxCell id="6AJnXQhVAYeLPMhWUeFD-5" value="" style="shape=umlActor;verticalLabelPosition=bottom;verticalAlign=top;html=1;outlineConnect=0;" vertex="1" parent="1">
          <mxGeometry x="60" y="140" width="50" height="100" as="geometry" />
        </mxCell>
        <mxCell id="6AJnXQhVAYeLPMhWUeFD-7" value="Sistema de&amp;nbsp;&lt;div&gt;pagamentos&lt;/div&gt;" style="shape=umlActor;verticalLabelPosition=bottom;verticalAlign=top;html=1;outlineConnect=0;" vertex="1" parent="1">
          <mxGeometry x="720" y="185" width="50" height="100" as="geometry" />
        </mxCell>
        <mxCell id="6AJnXQhVAYeLPMhWUeFD-9" value="ddede" style="rounded=0;whiteSpace=wrap;html=1;rotation=90;" vertex="1" parent="1">
          <mxGeometry x="-47.25" y="285.5" width="932.75" height="559.25" as="geometry" />
        </mxCell>
        <mxCell id="6AJnXQhVAYeLPMhWUeFD-12" value="Atendente" style="text;html=1;align=center;verticalAlign=middle;resizable=0;points=[];autosize=1;strokeColor=none;fillColor=none;" vertex="1" parent="1">
          <mxGeometry x="45" y="240" width="80" height="30" as="geometry" />
        </mxCell>
        <mxCell id="6AJnXQhVAYeLPMhWUeFD-15" value="Reservar passagem" style="ellipse;whiteSpace=wrap;html=1;" vertex="1" parent="1">
          <mxGeometry x="350" y="160" width="180" height="50" as="geometry" />
        </mxCell>
        <mxCell id="6AJnXQhVAYeLPMhWUeFD-17" value="Emitir relat칩rio de&lt;div&gt;passagens vendidas&lt;/div&gt;" style="ellipse;whiteSpace=wrap;html=1;" vertex="1" parent="1">
          <mxGeometry x="350" y="350" width="180" height="50" as="geometry" />
        </mxCell>
        <mxCell id="6AJnXQhVAYeLPMhWUeFD-18" value="Cancelar venda de&lt;div&gt;passagem&lt;/div&gt;" style="ellipse;whiteSpace=wrap;html=1;" vertex="1" parent="1">
          <mxGeometry x="343" y="285" width="180" height="50" as="geometry" />
        </mxCell>
        <mxCell id="6AJnXQhVAYeLPMhWUeFD-19" value="Listar passagens&lt;div&gt;&amp;nbsp;vendidas&lt;/div&gt;" style="ellipse;whiteSpace=wrap;html=1;" vertex="1" parent="1">
          <mxGeometry x="350" y="220" width="180" height="50" as="geometry" />
        </mxCell>
        <mxCell id="6AJnXQhVAYeLPMhWUeFD-20" value="Cadastrar no sistema" style="ellipse;whiteSpace=wrap;html=1;" vertex="1" parent="1">
          <mxGeometry x="343" y="541.5" width="180" height="50" as="geometry" />
        </mxCell>
        <mxCell id="6AJnXQhVAYeLPMhWUeFD-21" value="Realizar login" style="ellipse;whiteSpace=wrap;html=1;" vertex="1" parent="1">
          <mxGeometry x="343" y="610" width="180" height="50" as="geometry" />
        </mxCell>
        <mxCell id="6AJnXQhVAYeLPMhWUeFD-22" value="Consultar intiner치rios" style="ellipse;whiteSpace=wrap;html=1;" vertex="1" parent="1">
          <mxGeometry x="343" y="680" width="180" height="50" as="geometry" />
        </mxCell>
        <mxCell id="6AJnXQhVAYeLPMhWUeFD-23" value="Comprar passagem" style="ellipse;whiteSpace=wrap;html=1;" vertex="1" parent="1">
          <mxGeometry x="350" y="750" width="180" height="50" as="geometry" />
        </mxCell>
        <mxCell id="6AJnXQhVAYeLPMhWUeFD-24" value="Cancelar passagem" style="ellipse;whiteSpace=wrap;html=1;" vertex="1" parent="1">
          <mxGeometry x="343" y="821" width="180" height="50" as="geometry" />
        </mxCell>
        <mxCell id="6AJnXQhVAYeLPMhWUeFD-25" value="Consultar hist칩rico de&lt;div&gt;passagens&lt;/div&gt;" style="ellipse;whiteSpace=wrap;html=1;" vertex="1" parent="1">
          <mxGeometry x="343" y="890" width="180" height="50" as="geometry" />
        </mxCell>
        <mxCell id="6AJnXQhVAYeLPMhWUeFD-28" value="" style="endArrow=classic;html=1;rounded=0;entryX=0;entryY=0.5;entryDx=0;entryDy=0;exitX=0.5;exitY=0.5;exitDx=0;exitDy=0;exitPerimeter=0;" edge="1" parent="1" source="6AJnXQhVAYeLPMhWUeFD-5" target="6AJnXQhVAYeLPMhWUeFD-15">
          <mxGeometry width="50" height="50" relative="1" as="geometry">
            <mxPoint x="120" y="190" as="sourcePoint" />
            <mxPoint x="100" y="260" as="targetPoint" />
          </mxGeometry>
        </mxCell>
        <mxCell id="6AJnXQhVAYeLPMhWUeFD-29" value="" style="endArrow=classic;html=1;rounded=0;entryX=0.022;entryY=0.35;entryDx=0;entryDy=0;entryPerimeter=0;exitX=0.5;exitY=0.5;exitDx=0;exitDy=0;exitPerimeter=0;" edge="1" parent="1" source="6AJnXQhVAYeLPMhWUeFD-5" target="6AJnXQhVAYeLPMhWUeFD-19">
          <mxGeometry width="50" height="50" relative="1" as="geometry">
            <mxPoint x="90" y="190" as="sourcePoint" />
            <mxPoint x="200" y="200" as="targetPoint" />
          </mxGeometry>
        </mxCell>
        <mxCell id="6AJnXQhVAYeLPMhWUeFD-30" value="" style="endArrow=classic;html=1;rounded=0;entryX=0.037;entryY=0.322;entryDx=0;entryDy=0;entryPerimeter=0;exitX=0.5;exitY=0.5;exitDx=0;exitDy=0;exitPerimeter=0;" edge="1" parent="1" source="6AJnXQhVAYeLPMhWUeFD-5" target="6AJnXQhVAYeLPMhWUeFD-18">
          <mxGeometry width="50" height="50" relative="1" as="geometry">
            <mxPoint x="90" y="190" as="sourcePoint" />
            <mxPoint x="225" y="230" as="targetPoint" />
          </mxGeometry>
        </mxCell>
        <mxCell id="6AJnXQhVAYeLPMhWUeFD-31" value="" style="endArrow=classic;html=1;rounded=0;entryX=0.057;entryY=0.308;entryDx=0;entryDy=0;entryPerimeter=0;exitX=0.5;exitY=0.5;exitDx=0;exitDy=0;exitPerimeter=0;" edge="1" parent="1" source="6AJnXQhVAYeLPMhWUeFD-5" target="6AJnXQhVAYeLPMhWUeFD-17">
          <mxGeometry width="50" height="50" relative="1" as="geometry">
            <mxPoint x="90" y="190" as="sourcePoint" />
            <mxPoint x="245" y="220" as="targetPoint" />
          </mxGeometry>
        </mxCell>
        <mxCell id="6AJnXQhVAYeLPMhWUeFD-32" value="" style="endArrow=classic;html=1;rounded=0;entryX=0.037;entryY=0.649;entryDx=0;entryDy=0;exitX=0.5;exitY=0.5;exitDx=0;exitDy=0;exitPerimeter=0;entryPerimeter=0;" edge="1" parent="1" source="6AJnXQhVAYeLPMhWUeFD-4" target="6AJnXQhVAYeLPMhWUeFD-20">
          <mxGeometry width="50" height="50" relative="1" as="geometry">
            <mxPoint x="110" y="800" as="sourcePoint" />
            <mxPoint x="225" y="800" as="targetPoint" />
          </mxGeometry>
        </mxCell>
        <mxCell id="6AJnXQhVAYeLPMhWUeFD-33" value="" style="endArrow=classic;html=1;rounded=0;entryX=0.033;entryY=0.641;entryDx=0;entryDy=0;exitX=0.5;exitY=0.5;exitDx=0;exitDy=0;exitPerimeter=0;entryPerimeter=0;" edge="1" parent="1" source="6AJnXQhVAYeLPMhWUeFD-4" target="6AJnXQhVAYeLPMhWUeFD-21">
          <mxGeometry width="50" height="50" relative="1" as="geometry">
            <mxPoint x="140" y="810" as="sourcePoint" />
            <mxPoint x="255" y="810" as="targetPoint" />
          </mxGeometry>
        </mxCell>
        <mxCell id="6AJnXQhVAYeLPMhWUeFD-34" value="" style="endArrow=classic;html=1;rounded=0;entryX=0.074;entryY=0.76;entryDx=0;entryDy=0;exitX=0.5;exitY=0.5;exitDx=0;exitDy=0;exitPerimeter=0;entryPerimeter=0;" edge="1" parent="1" source="6AJnXQhVAYeLPMhWUeFD-4" target="6AJnXQhVAYeLPMhWUeFD-22">
          <mxGeometry width="50" height="50" relative="1" as="geometry">
            <mxPoint x="90" y="920" as="sourcePoint" />
            <mxPoint x="205" y="920" as="targetPoint" />
          </mxGeometry>
        </mxCell>
        <mxCell id="6AJnXQhVAYeLPMhWUeFD-35" value="" style="endArrow=classic;html=1;rounded=0;exitX=0.5;exitY=0.5;exitDx=0;exitDy=0;exitPerimeter=0;" edge="1" parent="1" source="6AJnXQhVAYeLPMhWUeFD-4" target="6AJnXQhVAYeLPMhWUeFD-23">
          <mxGeometry width="50" height="50" relative="1" as="geometry">
            <mxPoint x="310" y="870" as="sourcePoint" />
            <mxPoint x="425" y="870" as="targetPoint" />
          </mxGeometry>
        </mxCell>
        <mxCell id="6AJnXQhVAYeLPMhWUeFD-36" value="" style="endArrow=classic;html=1;rounded=0;exitX=0.5;exitY=0.5;exitDx=0;exitDy=0;exitPerimeter=0;entryX=0;entryY=0.5;entryDx=0;entryDy=0;" edge="1" parent="1" source="6AJnXQhVAYeLPMhWUeFD-4" target="6AJnXQhVAYeLPMhWUeFD-24">
          <mxGeometry width="50" height="50" relative="1" as="geometry">
            <mxPoint x="130" y="860" as="sourcePoint" />
            <mxPoint x="200" y="850" as="targetPoint" />
          </mxGeometry>
        </mxCell>
        <mxCell id="6AJnXQhVAYeLPMhWUeFD-37" value="" style="endArrow=classic;html=1;rounded=0;exitX=0.5;exitY=0.5;exitDx=0;exitDy=0;exitPerimeter=0;entryX=0.075;entryY=0.269;entryDx=0;entryDy=0;entryPerimeter=0;" edge="1" parent="1" source="6AJnXQhVAYeLPMhWUeFD-4" target="6AJnXQhVAYeLPMhWUeFD-25">
          <mxGeometry width="50" height="50" relative="1" as="geometry">
            <mxPoint x="50" y="930" as="sourcePoint" />
            <mxPoint x="210" y="910" as="targetPoint" />
          </mxGeometry>
        </mxCell>
        <mxCell id="6AJnXQhVAYeLPMhWUeFD-38" value="" style="endArrow=none;dashed=1;html=1;rounded=0;exitX=1;exitY=0.5;exitDx=0;exitDy=0;" edge="1" parent="1" source="6AJnXQhVAYeLPMhWUeFD-19">
          <mxGeometry width="50" height="50" relative="1" as="geometry">
            <mxPoint x="370" y="340" as="sourcePoint" />
            <mxPoint x="730" y="240" as="targetPoint" />
          </mxGeometry>
        </mxCell>
        <mxCell id="6AJnXQhVAYeLPMhWUeFD-39" value="" style="endArrow=classic;html=1;rounded=0;entryX=0.494;entryY=0.515;entryDx=0;entryDy=0;entryPerimeter=0;" edge="1" parent="1" target="6AJnXQhVAYeLPMhWUeFD-7">
          <mxGeometry width="50" height="50" relative="1" as="geometry">
            <mxPoint x="730" y="240" as="sourcePoint" />
            <mxPoint x="740" y="250" as="targetPoint" />
            <Array as="points">
              <mxPoint x="730" y="240" />
            </Array>
          </mxGeometry>
        </mxCell>
        <mxCell id="6AJnXQhVAYeLPMhWUeFD-41" value="&amp;lt;&amp;lt;include&amp;gt;&amp;gt;" style="text;html=1;align=center;verticalAlign=middle;resizable=0;points=[];autosize=1;strokeColor=none;fillColor=none;" vertex="1" parent="1">
          <mxGeometry x="590" y="210" width="90" height="30" as="geometry" />
        </mxCell>
        <mxCell id="6AJnXQhVAYeLPMhWUeFD-43" value="&lt;font style=&quot;font-size: 24px;&quot;&gt;Sistema de vendas de passagem de 칪nibus&lt;/font&gt;" style="whiteSpace=wrap;html=1;" vertex="1" parent="1">
          <mxGeometry x="140" y="60" width="560" height="40" as="geometry" />
        </mxCell>
      </root>
    </mxGraphModel>
  </diagram>
  <diagram id="8G9yt1RMqbUnAfeJjTTw" name="P치gina-2">
    <mxGraphModel dx="2491" dy="1511" grid="1" gridSize="10" guides="1" tooltips="1" connect="1" arrows="1" fold="1" page="1" pageScale="1" pageWidth="827" pageHeight="1169" math="0" shadow="0">
      <root>
        <mxCell id="0" />
        <mxCell id="1" parent="0" />
        <mxCell id="SGRu68Qiu40i846nKw5d-88" value="Financeiro" style="shape=umlActor;verticalLabelPosition=bottom;verticalAlign=top;html=1;outlineConnect=0;" vertex="1" parent="1">
          <mxGeometry x="40" y="465" width="50" height="100" as="geometry" />
        </mxCell>
        <mxCell id="SGRu68Qiu40i846nKw5d-90" value="Gerente de RH" style="shape=umlActor;verticalLabelPosition=bottom;verticalAlign=top;html=1;outlineConnect=0;" vertex="1" parent="1">
          <mxGeometry x="735" y="465" width="50" height="100" as="geometry" />
        </mxCell>
        <mxCell id="SGRu68Qiu40i846nKw5d-91" value="" style="rounded=0;whiteSpace=wrap;html=1;rotation=90;" vertex="1" parent="1">
          <mxGeometry x="-67.5" y="292.5" width="937.75" height="560" as="geometry" />
        </mxCell>
        <mxCell id="SGRu68Qiu40i846nKw5d-117" value="" style="edgeStyle=orthogonalEdgeStyle;rounded=0;orthogonalLoop=1;jettySize=auto;html=1;" edge="1" parent="1">
          <mxGeometry relative="1" as="geometry">
            <mxPoint x="100" y="270" as="sourcePoint" />
            <mxPoint x="100" y="270" as="targetPoint" />
          </mxGeometry>
        </mxCell>
        <mxCell id="SGRu68Qiu40i846nKw5d-97" value="Cadastrar despesa" style="ellipse;whiteSpace=wrap;html=1;" vertex="1" parent="1">
          <mxGeometry x="220" y="230" width="180" height="50" as="geometry" />
        </mxCell>
        <mxCell id="SGRu68Qiu40i846nKw5d-98" value="Listar despesa" style="ellipse;whiteSpace=wrap;html=1;" vertex="1" parent="1">
          <mxGeometry x="220" y="315" width="180" height="50" as="geometry" />
        </mxCell>
        <mxCell id="SGRu68Qiu40i846nKw5d-99" value="Alterar despesa" style="ellipse;whiteSpace=wrap;html=1;" vertex="1" parent="1">
          <mxGeometry x="220" y="400" width="180" height="50" as="geometry" />
        </mxCell>
        <mxCell id="SGRu68Qiu40i846nKw5d-100" value="Remover despesa" style="ellipse;whiteSpace=wrap;html=1;" vertex="1" parent="1">
          <mxGeometry x="220" y="480" width="180" height="50" as="geometry" />
        </mxCell>
        <mxCell id="SGRu68Qiu40i846nKw5d-101" value="Cadastrar pagamento" style="ellipse;whiteSpace=wrap;html=1;" vertex="1" parent="1">
          <mxGeometry x="220" y="560" width="180" height="50" as="geometry" />
        </mxCell>
        <mxCell id="SGRu68Qiu40i846nKw5d-102" value="Listar pagamento" style="ellipse;whiteSpace=wrap;html=1;" vertex="1" parent="1">
          <mxGeometry x="220" y="640" width="180" height="50" as="geometry" />
        </mxCell>
        <mxCell id="SGRu68Qiu40i846nKw5d-107" value="" style="endArrow=classic;html=1;rounded=0;entryX=0.037;entryY=0.649;entryDx=0;entryDy=0;exitX=0.5;exitY=0.5;exitDx=0;exitDy=0;exitPerimeter=0;entryPerimeter=0;" edge="1" parent="1" source="SGRu68Qiu40i846nKw5d-88" target="SGRu68Qiu40i846nKw5d-97">
          <mxGeometry width="50" height="50" relative="1" as="geometry">
            <mxPoint x="125" y="830" as="sourcePoint" />
            <mxPoint x="240" y="830" as="targetPoint" />
          </mxGeometry>
        </mxCell>
        <mxCell id="SGRu68Qiu40i846nKw5d-108" value="" style="endArrow=classic;html=1;rounded=0;entryX=0.033;entryY=0.641;entryDx=0;entryDy=0;exitX=0.5;exitY=0.5;exitDx=0;exitDy=0;exitPerimeter=0;entryPerimeter=0;" edge="1" parent="1" source="SGRu68Qiu40i846nKw5d-88" target="SGRu68Qiu40i846nKw5d-98">
          <mxGeometry width="50" height="50" relative="1" as="geometry">
            <mxPoint x="155" y="840" as="sourcePoint" />
            <mxPoint x="270" y="840" as="targetPoint" />
          </mxGeometry>
        </mxCell>
        <mxCell id="SGRu68Qiu40i846nKw5d-109" value="" style="endArrow=classic;html=1;rounded=0;entryX=0.074;entryY=0.76;entryDx=0;entryDy=0;exitX=0.5;exitY=0.5;exitDx=0;exitDy=0;exitPerimeter=0;entryPerimeter=0;" edge="1" parent="1" source="SGRu68Qiu40i846nKw5d-88" target="SGRu68Qiu40i846nKw5d-99">
          <mxGeometry width="50" height="50" relative="1" as="geometry">
            <mxPoint x="105" y="950" as="sourcePoint" />
            <mxPoint x="220" y="950" as="targetPoint" />
          </mxGeometry>
        </mxCell>
        <mxCell id="SGRu68Qiu40i846nKw5d-110" value="" style="endArrow=classic;html=1;rounded=0;exitX=0.5;exitY=0.5;exitDx=0;exitDy=0;exitPerimeter=0;" edge="1" parent="1" source="SGRu68Qiu40i846nKw5d-88" target="SGRu68Qiu40i846nKw5d-100">
          <mxGeometry width="50" height="50" relative="1" as="geometry">
            <mxPoint x="325" y="900" as="sourcePoint" />
            <mxPoint x="440" y="900" as="targetPoint" />
          </mxGeometry>
        </mxCell>
        <mxCell id="SGRu68Qiu40i846nKw5d-111" value="" style="endArrow=classic;html=1;rounded=0;exitX=0.5;exitY=0.5;exitDx=0;exitDy=0;exitPerimeter=0;entryX=0;entryY=0.5;entryDx=0;entryDy=0;" edge="1" parent="1" source="SGRu68Qiu40i846nKw5d-88" target="SGRu68Qiu40i846nKw5d-101">
          <mxGeometry width="50" height="50" relative="1" as="geometry">
            <mxPoint x="145" y="890" as="sourcePoint" />
            <mxPoint x="215" y="880" as="targetPoint" />
          </mxGeometry>
        </mxCell>
        <mxCell id="SGRu68Qiu40i846nKw5d-112" value="" style="endArrow=classic;html=1;rounded=0;exitX=0.5;exitY=0.5;exitDx=0;exitDy=0;exitPerimeter=0;entryX=0.075;entryY=0.269;entryDx=0;entryDy=0;entryPerimeter=0;" edge="1" parent="1" source="SGRu68Qiu40i846nKw5d-88" target="SGRu68Qiu40i846nKw5d-102">
          <mxGeometry width="50" height="50" relative="1" as="geometry">
            <mxPoint x="65" y="960" as="sourcePoint" />
            <mxPoint x="225" y="940" as="targetPoint" />
          </mxGeometry>
        </mxCell>
        <mxCell id="SGRu68Qiu40i846nKw5d-116" value="&lt;font style=&quot;font-size: 24px;&quot;&gt;Sistema de vendas de passagem de 칪nibus&lt;/font&gt;" style="whiteSpace=wrap;html=1;" vertex="1" parent="1">
          <mxGeometry x="120" y="70" width="560" height="40" as="geometry" />
        </mxCell>
        <mxCell id="SGRu68Qiu40i846nKw5d-120" value="" style="endArrow=classic;html=1;rounded=0;entryX=0.021;entryY=0.305;entryDx=0;entryDy=0;entryPerimeter=0;exitX=0.5;exitY=0.5;exitDx=0;exitDy=0;exitPerimeter=0;" edge="1" parent="1" source="SGRu68Qiu40i846nKw5d-88" target="SGRu68Qiu40i846nKw5d-123">
          <mxGeometry width="50" height="50" relative="1" as="geometry">
            <mxPoint x="80" y="440" as="sourcePoint" />
            <mxPoint x="278" y="500" as="targetPoint" />
          </mxGeometry>
        </mxCell>
        <mxCell id="SGRu68Qiu40i846nKw5d-121" value="" style="endArrow=classic;html=1;rounded=0;entryX=0.063;entryY=0.297;entryDx=0;entryDy=0;entryPerimeter=0;exitX=0.5;exitY=0.5;exitDx=0;exitDy=0;exitPerimeter=0;" edge="1" parent="1" source="SGRu68Qiu40i846nKw5d-88" target="SGRu68Qiu40i846nKw5d-125">
          <mxGeometry width="50" height="50" relative="1" as="geometry">
            <mxPoint x="70" y="440" as="sourcePoint" />
            <mxPoint x="281" y="571" as="targetPoint" />
          </mxGeometry>
        </mxCell>
        <mxCell id="SGRu68Qiu40i846nKw5d-122" value="" style="endArrow=classic;html=1;rounded=0;exitX=0.5;exitY=0.5;exitDx=0;exitDy=0;exitPerimeter=0;entryX=0.021;entryY=0.363;entryDx=0;entryDy=0;entryPerimeter=0;" edge="1" parent="1" source="SGRu68Qiu40i846nKw5d-88" target="SGRu68Qiu40i846nKw5d-124">
          <mxGeometry width="50" height="50" relative="1" as="geometry">
            <mxPoint x="120" y="602" as="sourcePoint" />
            <mxPoint x="265" y="617" as="targetPoint" />
          </mxGeometry>
        </mxCell>
        <mxCell id="SGRu68Qiu40i846nKw5d-123" value="Emitir relat칩rio&amp;nbsp;&lt;div&gt;financeiro&lt;/div&gt;" style="ellipse;whiteSpace=wrap;html=1;" vertex="1" parent="1">
          <mxGeometry x="220" y="890" width="180" height="50" as="geometry" />
        </mxCell>
        <mxCell id="SGRu68Qiu40i846nKw5d-124" value="Remover pagamento" style="ellipse;whiteSpace=wrap;html=1;" vertex="1" parent="1">
          <mxGeometry x="220" y="810" width="180" height="50" as="geometry" />
        </mxCell>
        <mxCell id="SGRu68Qiu40i846nKw5d-125" value="Alterar pagamento" style="ellipse;whiteSpace=wrap;html=1;" vertex="1" parent="1">
          <mxGeometry x="220" y="730" width="180" height="50" as="geometry" />
        </mxCell>
        <mxCell id="SGRu68Qiu40i846nKw5d-126" value="Emitir relat칩rio de&lt;div&gt;&amp;nbsp;funcion치rios&lt;/div&gt;" style="ellipse;whiteSpace=wrap;html=1;" vertex="1" parent="1">
          <mxGeometry x="450" y="720" width="180" height="50" as="geometry" />
        </mxCell>
        <mxCell id="SGRu68Qiu40i846nKw5d-127" value="Remover funcion치rio" style="ellipse;whiteSpace=wrap;html=1;" vertex="1" parent="1">
          <mxGeometry x="450" y="400" width="180" height="50" as="geometry" />
        </mxCell>
        <mxCell id="SGRu68Qiu40i846nKw5d-128" value="Consultar funcion치rio" style="ellipse;whiteSpace=wrap;html=1;" vertex="1" parent="1">
          <mxGeometry x="450" y="480" width="180" height="50" as="geometry" />
        </mxCell>
        <mxCell id="SGRu68Qiu40i846nKw5d-129" value="Atualizar dados dos&amp;nbsp;&lt;div&gt;funcion치rios&lt;/div&gt;" style="ellipse;whiteSpace=wrap;html=1;" vertex="1" parent="1">
          <mxGeometry x="450" y="560" width="180" height="50" as="geometry" />
        </mxCell>
        <mxCell id="SGRu68Qiu40i846nKw5d-130" value="Solicitar pagamento&amp;nbsp;&lt;div&gt;de funcion치rios&lt;/div&gt;" style="ellipse;whiteSpace=wrap;html=1;" vertex="1" parent="1">
          <mxGeometry x="450" y="640" width="180" height="50" as="geometry" />
        </mxCell>
        <mxCell id="SGRu68Qiu40i846nKw5d-131" value="Cadastrar funcion치rio" style="ellipse;whiteSpace=wrap;html=1;" vertex="1" parent="1">
          <mxGeometry x="450" y="330" width="180" height="50" as="geometry" />
        </mxCell>
        <mxCell id="SGRu68Qiu40i846nKw5d-133" value="" style="endArrow=classic;html=1;rounded=0;exitX=0.5;exitY=0.5;exitDx=0;exitDy=0;exitPerimeter=0;entryX=1;entryY=1;entryDx=0;entryDy=0;" edge="1" parent="1" source="SGRu68Qiu40i846nKw5d-90" target="SGRu68Qiu40i846nKw5d-131">
          <mxGeometry width="50" height="50" relative="1" as="geometry">
            <mxPoint x="450" y="600" as="sourcePoint" />
            <mxPoint x="500" y="550" as="targetPoint" />
          </mxGeometry>
        </mxCell>
        <mxCell id="SGRu68Qiu40i846nKw5d-134" value="" style="endArrow=classic;html=1;rounded=0;exitX=0.5;exitY=0.5;exitDx=0;exitDy=0;exitPerimeter=0;entryX=0.947;entryY=0.833;entryDx=0;entryDy=0;entryPerimeter=0;" edge="1" parent="1" source="SGRu68Qiu40i846nKw5d-90" target="SGRu68Qiu40i846nKw5d-127">
          <mxGeometry width="50" height="50" relative="1" as="geometry">
            <mxPoint x="855" y="603" as="sourcePoint" />
            <mxPoint x="700" y="460" as="targetPoint" />
          </mxGeometry>
        </mxCell>
        <mxCell id="SGRu68Qiu40i846nKw5d-135" value="" style="endArrow=classic;html=1;rounded=0;entryX=0.962;entryY=0.796;entryDx=0;entryDy=0;entryPerimeter=0;exitX=0.5;exitY=0.5;exitDx=0;exitDy=0;exitPerimeter=0;" edge="1" parent="1" source="SGRu68Qiu40i846nKw5d-90" target="SGRu68Qiu40i846nKw5d-128">
          <mxGeometry width="50" height="50" relative="1" as="geometry">
            <mxPoint x="885" y="763" as="sourcePoint" />
            <mxPoint x="730" y="620" as="targetPoint" />
          </mxGeometry>
        </mxCell>
        <mxCell id="SGRu68Qiu40i846nKw5d-136" value="" style="endArrow=classic;html=1;rounded=0;exitX=0.5;exitY=0.5;exitDx=0;exitDy=0;exitPerimeter=0;entryX=1;entryY=0.5;entryDx=0;entryDy=0;" edge="1" parent="1" source="SGRu68Qiu40i846nKw5d-90" target="SGRu68Qiu40i846nKw5d-129">
          <mxGeometry width="50" height="50" relative="1" as="geometry">
            <mxPoint x="925" y="813" as="sourcePoint" />
            <mxPoint x="770" y="670" as="targetPoint" />
          </mxGeometry>
        </mxCell>
        <mxCell id="SGRu68Qiu40i846nKw5d-137" value="" style="endArrow=classic;html=1;rounded=0;exitX=0.5;exitY=0.5;exitDx=0;exitDy=0;exitPerimeter=0;entryX=1;entryY=0.5;entryDx=0;entryDy=0;" edge="1" parent="1" source="SGRu68Qiu40i846nKw5d-90" target="SGRu68Qiu40i846nKw5d-130">
          <mxGeometry width="50" height="50" relative="1" as="geometry">
            <mxPoint x="875" y="793" as="sourcePoint" />
            <mxPoint x="720" y="650" as="targetPoint" />
          </mxGeometry>
        </mxCell>
        <mxCell id="SGRu68Qiu40i846nKw5d-138" value="" style="endArrow=classic;html=1;rounded=0;exitX=0.5;exitY=0.5;exitDx=0;exitDy=0;exitPerimeter=0;entryX=1;entryY=0.5;entryDx=0;entryDy=0;" edge="1" parent="1" source="SGRu68Qiu40i846nKw5d-90" target="SGRu68Qiu40i846nKw5d-126">
          <mxGeometry width="50" height="50" relative="1" as="geometry">
            <mxPoint x="965" y="813" as="sourcePoint" />
            <mxPoint x="810" y="670" as="targetPoint" />
          </mxGeometry>
        </mxCell>
      </root>
    </mxGraphModel>
  </diagram>
  <diagram id="K_Nz717iujxQDkpVdM8d" name="P치gina-3">
    <mxGraphModel dx="1744" dy="1058" grid="1" gridSize="10" guides="1" tooltips="1" connect="1" arrows="1" fold="1" page="1" pageScale="1" pageWidth="827" pageHeight="1169" math="0" shadow="0">
      <root>
        <mxCell id="0" />
        <mxCell id="1" parent="0" />
        <mxCell id="rf6E7fuG8Jv0nVebE8g7-1" value="Motorista" style="shape=umlActor;verticalLabelPosition=bottom;verticalAlign=top;html=1;outlineConnect=0;" vertex="1" parent="1">
          <mxGeometry x="40" y="455" width="50" height="100" as="geometry" />
        </mxCell>
        <mxCell id="rf6E7fuG8Jv0nVebE8g7-2" value="Gerente de RH" style="shape=umlActor;verticalLabelPosition=bottom;verticalAlign=top;html=1;outlineConnect=0;" vertex="1" parent="1">
          <mxGeometry x="735" y="455" width="50" height="100" as="geometry" />
        </mxCell>
        <mxCell id="rf6E7fuG8Jv0nVebE8g7-3" value="" style="rounded=0;whiteSpace=wrap;html=1;rotation=90;" vertex="1" parent="1">
          <mxGeometry x="-68.88" y="260" width="937.75" height="560" as="geometry" />
        </mxCell>
        <mxCell id="rf6E7fuG8Jv0nVebE8g7-4" value="" style="edgeStyle=orthogonalEdgeStyle;rounded=0;orthogonalLoop=1;jettySize=auto;html=1;" edge="1" parent="1">
          <mxGeometry relative="1" as="geometry">
            <mxPoint x="100" y="260" as="sourcePoint" />
            <mxPoint x="100" y="260" as="targetPoint" />
          </mxGeometry>
        </mxCell>
        <mxCell id="rf6E7fuG8Jv0nVebE8g7-7" value="Consultar escala" style="ellipse;whiteSpace=wrap;html=1;" vertex="1" parent="1">
          <mxGeometry x="210" y="420" width="180" height="50" as="geometry" />
        </mxCell>
        <mxCell id="rf6E7fuG8Jv0nVebE8g7-8" value="Consultar itiner치rio&lt;div&gt;de viagem&lt;/div&gt;" style="ellipse;whiteSpace=wrap;html=1;" vertex="1" parent="1">
          <mxGeometry x="210" y="505" width="180" height="50" as="geometry" />
        </mxCell>
        <mxCell id="rf6E7fuG8Jv0nVebE8g7-9" value="Registrar ocorr칡ncia" style="ellipse;whiteSpace=wrap;html=1;" vertex="1" parent="1">
          <mxGeometry x="210" y="580" width="180" height="50" as="geometry" />
        </mxCell>
        <mxCell id="rf6E7fuG8Jv0nVebE8g7-13" value="" style="endArrow=classic;html=1;rounded=0;entryX=0.074;entryY=0.76;entryDx=0;entryDy=0;exitX=0.5;exitY=0.5;exitDx=0;exitDy=0;exitPerimeter=0;entryPerimeter=0;" edge="1" parent="1" source="rf6E7fuG8Jv0nVebE8g7-1" target="rf6E7fuG8Jv0nVebE8g7-7">
          <mxGeometry width="50" height="50" relative="1" as="geometry">
            <mxPoint x="105" y="940" as="sourcePoint" />
            <mxPoint x="220" y="940" as="targetPoint" />
          </mxGeometry>
        </mxCell>
        <mxCell id="rf6E7fuG8Jv0nVebE8g7-14" value="" style="endArrow=classic;html=1;rounded=0;exitX=0.5;exitY=0.5;exitDx=0;exitDy=0;exitPerimeter=0;" edge="1" parent="1" source="rf6E7fuG8Jv0nVebE8g7-1" target="rf6E7fuG8Jv0nVebE8g7-8">
          <mxGeometry width="50" height="50" relative="1" as="geometry">
            <mxPoint x="325" y="890" as="sourcePoint" />
            <mxPoint x="440" y="890" as="targetPoint" />
          </mxGeometry>
        </mxCell>
        <mxCell id="rf6E7fuG8Jv0nVebE8g7-15" value="" style="endArrow=classic;html=1;rounded=0;exitX=0.5;exitY=0.5;exitDx=0;exitDy=0;exitPerimeter=0;entryX=0;entryY=0.5;entryDx=0;entryDy=0;" edge="1" parent="1" source="rf6E7fuG8Jv0nVebE8g7-1" target="rf6E7fuG8Jv0nVebE8g7-9">
          <mxGeometry width="50" height="50" relative="1" as="geometry">
            <mxPoint x="145" y="880" as="sourcePoint" />
            <mxPoint x="215" y="870" as="targetPoint" />
          </mxGeometry>
        </mxCell>
        <mxCell id="rf6E7fuG8Jv0nVebE8g7-17" value="&lt;font style=&quot;font-size: 24px;&quot;&gt;Sistema de vendas de passagem de 칪nibus&lt;/font&gt;" style="whiteSpace=wrap;html=1;" vertex="1" parent="1">
          <mxGeometry x="120" y="60" width="560" height="40" as="geometry" />
        </mxCell>
        <mxCell id="rf6E7fuG8Jv0nVebE8g7-24" value="Cadastrar 칪nibus" style="ellipse;whiteSpace=wrap;html=1;" vertex="1" parent="1">
          <mxGeometry x="450" y="660" width="180" height="50" as="geometry" />
        </mxCell>
        <mxCell id="rf6E7fuG8Jv0nVebE8g7-25" value="Cadastrar viagem" style="ellipse;whiteSpace=wrap;html=1;" vertex="1" parent="1">
          <mxGeometry x="450" y="405" width="180" height="50" as="geometry" />
        </mxCell>
        <mxCell id="rf6E7fuG8Jv0nVebE8g7-26" value="Listar viagens" style="ellipse;whiteSpace=wrap;html=1;" vertex="1" parent="1">
          <mxGeometry x="450" y="470" width="180" height="50" as="geometry" />
        </mxCell>
        <mxCell id="rf6E7fuG8Jv0nVebE8g7-27" value="Alterar viagem" style="ellipse;whiteSpace=wrap;html=1;" vertex="1" parent="1">
          <mxGeometry x="450" y="535" width="180" height="50" as="geometry" />
        </mxCell>
        <mxCell id="rf6E7fuG8Jv0nVebE8g7-28" value="Remover viagem" style="ellipse;whiteSpace=wrap;html=1;" vertex="1" parent="1">
          <mxGeometry x="450" y="600" width="180" height="50" as="geometry" />
        </mxCell>
        <mxCell id="rf6E7fuG8Jv0nVebE8g7-29" value="Remover intiner치rio" style="ellipse;whiteSpace=wrap;html=1;" vertex="1" parent="1">
          <mxGeometry x="450" y="340" width="180" height="50" as="geometry" />
        </mxCell>
        <mxCell id="rf6E7fuG8Jv0nVebE8g7-30" value="" style="endArrow=classic;html=1;rounded=0;exitX=0.5;exitY=0.5;exitDx=0;exitDy=0;exitPerimeter=0;entryX=1;entryY=1;entryDx=0;entryDy=0;" edge="1" parent="1" source="rf6E7fuG8Jv0nVebE8g7-2" target="rf6E7fuG8Jv0nVebE8g7-29">
          <mxGeometry width="50" height="50" relative="1" as="geometry">
            <mxPoint x="450" y="590" as="sourcePoint" />
            <mxPoint x="500" y="540" as="targetPoint" />
          </mxGeometry>
        </mxCell>
        <mxCell id="rf6E7fuG8Jv0nVebE8g7-31" value="" style="endArrow=classic;html=1;rounded=0;exitX=0.5;exitY=0.5;exitDx=0;exitDy=0;exitPerimeter=0;entryX=0.947;entryY=0.833;entryDx=0;entryDy=0;entryPerimeter=0;" edge="1" parent="1" source="rf6E7fuG8Jv0nVebE8g7-2" target="rf6E7fuG8Jv0nVebE8g7-25">
          <mxGeometry width="50" height="50" relative="1" as="geometry">
            <mxPoint x="855" y="593" as="sourcePoint" />
            <mxPoint x="700" y="450" as="targetPoint" />
          </mxGeometry>
        </mxCell>
        <mxCell id="rf6E7fuG8Jv0nVebE8g7-32" value="" style="endArrow=classic;html=1;rounded=0;entryX=0.962;entryY=0.796;entryDx=0;entryDy=0;entryPerimeter=0;exitX=0.5;exitY=0.5;exitDx=0;exitDy=0;exitPerimeter=0;" edge="1" parent="1" source="rf6E7fuG8Jv0nVebE8g7-2" target="rf6E7fuG8Jv0nVebE8g7-26">
          <mxGeometry width="50" height="50" relative="1" as="geometry">
            <mxPoint x="885" y="753" as="sourcePoint" />
            <mxPoint x="730" y="610" as="targetPoint" />
          </mxGeometry>
        </mxCell>
        <mxCell id="rf6E7fuG8Jv0nVebE8g7-33" value="" style="endArrow=classic;html=1;rounded=0;exitX=0.5;exitY=0.5;exitDx=0;exitDy=0;exitPerimeter=0;entryX=1;entryY=0.5;entryDx=0;entryDy=0;" edge="1" parent="1" source="rf6E7fuG8Jv0nVebE8g7-2" target="rf6E7fuG8Jv0nVebE8g7-27">
          <mxGeometry width="50" height="50" relative="1" as="geometry">
            <mxPoint x="925" y="803" as="sourcePoint" />
            <mxPoint x="770" y="660" as="targetPoint" />
          </mxGeometry>
        </mxCell>
        <mxCell id="rf6E7fuG8Jv0nVebE8g7-34" value="" style="endArrow=classic;html=1;rounded=0;exitX=0.5;exitY=0.5;exitDx=0;exitDy=0;exitPerimeter=0;entryX=1;entryY=0.5;entryDx=0;entryDy=0;" edge="1" parent="1" source="rf6E7fuG8Jv0nVebE8g7-2" target="rf6E7fuG8Jv0nVebE8g7-28">
          <mxGeometry width="50" height="50" relative="1" as="geometry">
            <mxPoint x="875" y="783" as="sourcePoint" />
            <mxPoint x="720" y="640" as="targetPoint" />
          </mxGeometry>
        </mxCell>
        <mxCell id="rf6E7fuG8Jv0nVebE8g7-35" value="" style="endArrow=classic;html=1;rounded=0;exitX=0.5;exitY=0.5;exitDx=0;exitDy=0;exitPerimeter=0;entryX=1;entryY=0.5;entryDx=0;entryDy=0;" edge="1" parent="1" source="rf6E7fuG8Jv0nVebE8g7-2" target="rf6E7fuG8Jv0nVebE8g7-24">
          <mxGeometry width="50" height="50" relative="1" as="geometry">
            <mxPoint x="965" y="803" as="sourcePoint" />
            <mxPoint x="810" y="660" as="targetPoint" />
          </mxGeometry>
        </mxCell>
        <mxCell id="rf6E7fuG8Jv0nVebE8g7-36" value="Alterar intiner치rio" style="ellipse;whiteSpace=wrap;html=1;" vertex="1" parent="1">
          <mxGeometry x="450" y="280" width="180" height="50" as="geometry" />
        </mxCell>
        <mxCell id="rf6E7fuG8Jv0nVebE8g7-37" value="Listar 칪nibus" style="ellipse;whiteSpace=wrap;html=1;" vertex="1" parent="1">
          <mxGeometry x="450" y="730" width="180" height="50" as="geometry" />
        </mxCell>
        <mxCell id="rf6E7fuG8Jv0nVebE8g7-38" value="Alterar 칪nibus" style="ellipse;whiteSpace=wrap;html=1;" vertex="1" parent="1">
          <mxGeometry x="450" y="800" width="180" height="50" as="geometry" />
        </mxCell>
        <mxCell id="rf6E7fuG8Jv0nVebE8g7-39" value="Listar intiner치rio" style="ellipse;whiteSpace=wrap;html=1;" vertex="1" parent="1">
          <mxGeometry x="450" y="220" width="180" height="50" as="geometry" />
        </mxCell>
        <mxCell id="rf6E7fuG8Jv0nVebE8g7-40" value="Remover 칪nibus" style="ellipse;whiteSpace=wrap;html=1;" vertex="1" parent="1">
          <mxGeometry x="450" y="870" width="180" height="50" as="geometry" />
        </mxCell>
        <mxCell id="rf6E7fuG8Jv0nVebE8g7-41" value="Cadastrar intiner치rio" style="ellipse;whiteSpace=wrap;html=1;" vertex="1" parent="1">
          <mxGeometry x="450" y="160" width="180" height="50" as="geometry" />
        </mxCell>
        <mxCell id="rf6E7fuG8Jv0nVebE8g7-42" value="" style="endArrow=classic;html=1;rounded=0;exitX=0.5;exitY=0.5;exitDx=0;exitDy=0;exitPerimeter=0;entryX=0.952;entryY=0.253;entryDx=0;entryDy=0;entryPerimeter=0;" edge="1" parent="1" source="rf6E7fuG8Jv0nVebE8g7-2" target="rf6E7fuG8Jv0nVebE8g7-37">
          <mxGeometry width="50" height="50" relative="1" as="geometry">
            <mxPoint x="770" y="520" as="sourcePoint" />
            <mxPoint x="640" y="700" as="targetPoint" />
          </mxGeometry>
        </mxCell>
        <mxCell id="rf6E7fuG8Jv0nVebE8g7-43" value="" style="endArrow=classic;html=1;rounded=0;exitX=0.5;exitY=0.5;exitDx=0;exitDy=0;exitPerimeter=0;entryX=0.889;entryY=0.2;entryDx=0;entryDy=0;entryPerimeter=0;" edge="1" parent="1" source="rf6E7fuG8Jv0nVebE8g7-2" target="rf6E7fuG8Jv0nVebE8g7-38">
          <mxGeometry width="50" height="50" relative="1" as="geometry">
            <mxPoint x="790" y="680" as="sourcePoint" />
            <mxPoint x="660" y="860" as="targetPoint" />
          </mxGeometry>
        </mxCell>
        <mxCell id="rf6E7fuG8Jv0nVebE8g7-44" value="" style="endArrow=classic;html=1;rounded=0;exitX=0.5;exitY=0.5;exitDx=0;exitDy=0;exitPerimeter=0;entryX=0.894;entryY=0.215;entryDx=0;entryDy=0;entryPerimeter=0;" edge="1" parent="1" source="rf6E7fuG8Jv0nVebE8g7-2" target="rf6E7fuG8Jv0nVebE8g7-40">
          <mxGeometry width="50" height="50" relative="1" as="geometry">
            <mxPoint x="850" y="770" as="sourcePoint" />
            <mxPoint x="720" y="950" as="targetPoint" />
          </mxGeometry>
        </mxCell>
        <mxCell id="rf6E7fuG8Jv0nVebE8g7-45" value="" style="endArrow=classic;html=1;rounded=0;exitX=0.5;exitY=0.5;exitDx=0;exitDy=0;exitPerimeter=0;entryX=0.952;entryY=0.701;entryDx=0;entryDy=0;entryPerimeter=0;" edge="1" parent="1" source="rf6E7fuG8Jv0nVebE8g7-2" target="rf6E7fuG8Jv0nVebE8g7-36">
          <mxGeometry width="50" height="50" relative="1" as="geometry">
            <mxPoint x="886" y="522" as="sourcePoint" />
            <mxPoint x="730" y="400" as="targetPoint" />
          </mxGeometry>
        </mxCell>
        <mxCell id="rf6E7fuG8Jv0nVebE8g7-46" value="" style="endArrow=classic;html=1;rounded=0;exitX=0.5;exitY=0.5;exitDx=0;exitDy=0;exitPerimeter=0;entryX=0.952;entryY=0.728;entryDx=0;entryDy=0;entryPerimeter=0;" edge="1" parent="1" source="rf6E7fuG8Jv0nVebE8g7-2" target="rf6E7fuG8Jv0nVebE8g7-39">
          <mxGeometry width="50" height="50" relative="1" as="geometry">
            <mxPoint x="896" y="452" as="sourcePoint" />
            <mxPoint x="740" y="330" as="targetPoint" />
          </mxGeometry>
        </mxCell>
        <mxCell id="rf6E7fuG8Jv0nVebE8g7-47" value="" style="endArrow=classic;html=1;rounded=0;exitX=0.5;exitY=0.5;exitDx=0;exitDy=0;exitPerimeter=0;entryX=0.941;entryY=0.732;entryDx=0;entryDy=0;entryPerimeter=0;" edge="1" parent="1" source="rf6E7fuG8Jv0nVebE8g7-2" target="rf6E7fuG8Jv0nVebE8g7-41">
          <mxGeometry width="50" height="50" relative="1" as="geometry">
            <mxPoint x="906" y="442" as="sourcePoint" />
            <mxPoint x="750" y="320" as="targetPoint" />
          </mxGeometry>
        </mxCell>
      </root>
    </mxGraphModel>
  </diagram>
</mxfile>
